<?xml version="1.0" encoding="UTF-8"?>
<svg id="Capa_2" data-name="Capa 2" xmlns="http://www.w3.org/2000/svg" viewBox="0 0 363.35 393.38">
  <defs>
    <style>
      .cls-1 {
        fill: #92bd3c;
        stroke: #fff;
        stroke-miterlimit: 10;
        stroke-width: 4px;
      }

      .cls-2 {
        fill: #66348b;
      }

      .cls-3 {
        fill: #ea528d;
      }

      .cls-4 {
        fill: #4dade2;
      }
    </style>
  </defs>
  <polygon class="cls-4" points="20 93.34 181.68 186.69 343.35 93.34 181.68 0 20 93.34"/>
  <polygon class="cls-2" points="201.68 206.69 201.68 393.38 363.35 300.03 363.35 113.34 201.68 206.69"/>
  <path class="cls-1" d="M238.93,237.3v64.25c0,12.14,13.14,19.72,23.65,13.65l55.64-32.12c4.88-2.82,7.88-8.02,7.88-13.65v-64.25c0-12.14-13.14-19.72-23.65-13.65l-55.64,32.12c-4.88,2.82-7.88,8.02-7.88,13.65Z"/>
  <polygon class="cls-3" points="122.53 295.17 122.53 325.57 39.15 277.43 39.15 181.16 122.53 229.29 122.53 245.04 161.68 267.64 161.68 206.69 0 113.34 0 300.03 161.68 393.38 161.68 317.77 122.53 295.17"/>
</svg>